<svg xmlns="http://www.w3.org/2000/svg" viewBox="0 0 1440 900" width="1440" height="900"><path d="M 70 150 L 290 150 Q 340 150 340 200 L 340 420" fill="none" stroke="#bff0e9" stroke-width="1.1" stroke-linecap="round" stroke-dasharray="1.5 13"></path><path d="M 1370 120 L 1170 120 Q 1120 120 1120 170 L 1120 380" fill="none" stroke="#bff0e9" stroke-width="1.1" stroke-linecap="round" stroke-dasharray="1.5 13"></path><path d="M 760 60 L 760 300" fill="none" stroke="#bff0e9" stroke-width="1.1" stroke-linecap="round" stroke-dasharray="1.5 13"></path><path d="M 1040 840 L 1040 600" fill="none" stroke="#bff0e9" stroke-width="1.1" stroke-linecap="round" stroke-dasharray="1.5 13"></path><path d="M 150 720 L 370 720 Q 420 720 420 670 L 420 720" fill="none" stroke="#bff0e9" stroke-width="1.1" stroke-linecap="round" stroke-dasharray="1.5 13"></path><path d="M 1290 680 L 1110 680 Q 1060 680 1060 630 L 1060 680" fill="none" stroke="#bff0e9" stroke-width="1.1" stroke-linecap="round" stroke-dasharray="1.5 13"></path><circle cx="70" cy="150" r="3.5" fill="#bff0e9"></circle><circle cx="340" cy="420" r="3.5" fill="#bff0e9"></circle><circle cx="1370" cy="120" r="3.5" fill="#bff0e9"></circle><circle cx="1120" cy="380" r="3.5" fill="#bff0e9"></circle><circle cx="760" cy="60" r="3.5" fill="#bff0e9"></circle><circle cx="760" cy="300" r="3.5" fill="#bff0e9"></circle><circle cx="1040" cy="840" r="3.5" fill="#bff0e9"></circle><circle cx="1040" cy="600" r="3.5" fill="#bff0e9"></circle><circle cx="150" cy="720" r="3.5" fill="#bff0e9"></circle><circle cx="1290" cy="680" r="3.5" fill="#bff0e9"></circle></svg>